<svg width="26" height="26" xmlns="http://www.w3.org/2000/svg">

 <g>
  <title>background</title>
  <rect fill="none" id="canvas_background" height="602" width="802" y="-1" x="-1"/>
 </g>
 <g>
  <title>Layer 1</title>
  <path id="svg_1" d="m7.546,25l10.909,0c3.615,0 6.545,-2.93 6.545,-6.546l0,-10.909c0,-3.615 -2.93,-6.545 -6.546,-6.545l-10.909,0c-3.615,0 -6.545,2.93 -6.545,6.546l0,10.909c0,3.615 2.93,6.545 6.546,6.545z" stroke-width="2" stroke-miterlimit="10" stroke="#288be6" fill="none"/>
  <path id="svg_2" d="m13,7a6,6 0 1 0 0,12a6,6 0 1 0 0,-12z" stroke-width="2" stroke-miterlimit="10" stroke="#288be6" fill="none"/>
  <path fill="#288be6" fill-opacity="0" stroke="#288be6" id="svg_3" d="m20.00001,4.0625a1.5,1.5 0 1 0 0,3a1.5,1.5 0 1 0 0,-3z"/>
 </g>
</svg>